<svg xmlns="http://www.w3.org/2000/svg" version="1.1" xmlns:xlink="http://www.w3.org/1999/xlink" xmlns:svgjs="http://svgjs.dev/svgjs" viewBox="0 0 1422 800"><defs><filter id="uuunion-blur" x="-100%" y="-100%" width="400%" height="400%" color-interpolation-filters="sRGB">
        <feGaussianBlur in="SourceGraphic" stdDeviation="22 22" result="blur"></feGaussianBlur>
        <feDropShadow stdDeviation="12.307692307692308" in="blur" dx="10" dy="10" flood-color="hsl(205, 69%, 40%)" flood-opacity="0.25" x="0%" y="0%" width="100%" height="100%"></feDropShadow>
      </filter><filter id="uuunion-blur2" x="-100%" y="-100%" width="400%" height="400%" color-interpolation-filters="sRGB">
        <feGaussianBlur in="SourceGraphic" stdDeviation="22 22" result="blur"></feGaussianBlur>
        <feDropShadow stdDeviation="12.307692307692308" in="blur" dx="-10" dy="-10" flood-color="hsl(205, 69%, 40%)" flood-opacity="0.25" x="0%" y="0%" width="100%" height="100%"></feDropShadow>
      </filter><linearGradient gradientTransform="rotate(0, 0.5, 0.5)" x1="50%" y1="0%" x2="50%" y2="100%" id="uuunion-grad"><stop stop-color="hsl(205, 69%, 80%)" offset="10%"></stop><stop stop-color="hsl(205, 69%, 40%)" offset="90%"></stop></linearGradient><linearGradient gradientTransform="rotate(337, 0.5, 0.5)" x1="50%" y1="0%" x2="50%" y2="100%" id="uuunion-grad2"><stop stop-color="hsl(205, 69%, 80%)" offset="25%"></stop><stop stop-color="hsl(205, 69%, 40%)" offset="100%"></stop></linearGradient><linearGradient gradientTransform="rotate(333, 0.5, 0.5)" x1="50%" y1="0%" x2="50%" y2="100%" id="uuunion-grad3"><stop stop-color="hsl(205, 69%, 80%)" offset="0%"></stop><stop stop-color="hsl(205, 69%, 40%)" offset="75%"></stop></linearGradient></defs><path d="M-131.17 -85.26Q-118.19 -87.46 -105.21 -88.58 -92.23 -88.48 -79.25 -87.16 -66.28 -84.82 -53.3 -81.78 -40.32 -78.49 -27.34 -75.41 -14.36 -72.99 -1.38 -71.57 11.59 -71.37 24.57 -72.39 37.54 -74.51 50.52 -77.42 63.5 -80.69 76.48 -83.86 89.46 -86.48 102.44 -88.17 115.42 -88.69 128.4 -87.96 141.38 -86.09 154.35 -83.35 167.33 -80.12 180.31 -76.88 193.29 -74.08 206.27 -72.13 219.25 -71.31 232.23 -71.73 245.21 -73.34 258.18 -75.9 271.16 -79.05 284.14 -82.33 297.12 -85.28 310.1 -87.47 323.08 -88.59 336.06 -88.48 349.04 -87.15 362.02 -84.79 374.99 -81.75 387.97 -78.46 400.95 -75.39 413.93 -72.97 426.91 -71.57 439.89 -71.37 452.87 -72.41 465.85 -74.53 478.83 -77.44 491.8 -80.72 504.78 -83.89 517.76 -86.5 530.74 -88.18 543.72 -88.69 556.7 -87.95 569.68 -86.07 582.66 -83.32 595.64 -80.1 608.61 -76.85 621.59 -74.06 634.57 -72.12 647.55 -71.31 660.53 -71.74 673.51 -73.36 686.49 -75.92 699.47 -79.07 712.45 -82.36 725.42 -85.3 738.4 -87.48 751.38 -88.59 764.36 -88.47 777.34 -87.13 790.32 -84.77 803.3 -81.73 816.28 -78.43 829.26 -75.36 842.23 -72.96 855.21 -71.56 868.19 -71.37 881.17 -72.42 894.15 -74.55 907.13 -77.47 920.11 -80.74 933.09 -83.91 946.07 -86.52 959.04 -88.19 972.02 -88.69 985 -87.94 997.98 -86.05 1010.96 -83.3 1023.94 -80.07 1036.92 -76.83 1049.9 -74.04 1062.88 -72.11 1075.85 -71.31 1088.83 -71.75 1101.81 -73.37 1114.79 -75.95 1127.77 -79.1 1140.75 -82.38 1153.73 -85.32 1166.71 -87.5 1179.69 -88.6 1192.67 -88.46 1205.64 -87.12 1218.62 -84.75 1231.6 -81.7 1244.58 -78.41 1257.56 -75.34 1270.54 -72.94 1283.52 -71.55 1296.5 -71.38 1309.48 -72.43 1322.45 -74.57 1335.43 -77.49 1348.41 -80.77 1361.39 -83.93 1374.37 -86.54 1387.35 -88.2 1400.33 -88.69 1413.31 -87.93 1426.29 -86.03 1439.27 -83.27 1452.24 -80.04 1465.22 -76.8 1478.2 -74.02 1491.18 -72.1 1504.16 -71.31 1517.14 -71.76 1530.12 -73.39 1533.46 -58.21 1538.6 -43.02 1545.22 -27.84 1552.95 -12.65 1561.34 2.52 1569.89 17.71 1578.11 32.89 1585.52 48.08 1591.69 63.26 1596.25 78.45 1598.95 93.63 1599.63 108.82 1598.24 124 1594.86 139.19 1589.71 154.37 1583.06 169.56 1575.32 184.74 1566.93 199.93 1558.38 215.11 1550.16 230.3 1542.77 245.48 1536.62 260.67 1532.08 275.85 1529.41 291.04 1528.77 306.22 1530.19 321.41 1533.59 336.59 1538.77 351.78 1545.44 366.96 1553.19 382.15 1561.59 397.33 1570.14 412.52 1578.34 427.7 1585.72 442.89 1591.85 458.07 1596.36 473.26 1599 488.44 1599.62 503.63 1598.17 518.81 1594.74 534 1589.53 549.18 1582.85 564.37 1575.08 579.55 1566.67 594.74 1558.13 609.92 1549.93 625.11 1542.57 640.29 1536.46 655.48 1531.98 670.66 1529.36 685.85 1528.78 701.03 1530.26 716.22 1533.72 731.4 1538.95 746.59 1545.65 761.77 1553.43 776.96 1561.84 792.14 1570.39 807.33 1578.57 822.51 1585.92 837.7 1592 852.88 1596.47 868.07 1599.05 883.25 1599.6 898.44 1585.9 903 1572.21 904.26 1558.51 902.05 1544.81 896.67 1531.12 888.91 1517.42 879.86 1503.72 870.84 1490.02 863.13 1476.33 857.83 1462.63 855.72 1448.93 857.08 1435.23 861.73 1421.54 868.99 1407.84 877.83 1394.14 886.99 1380.45 895.14 1366.75 901.12 1353.05 904.07 1339.35 903.57 1325.66 899.69 1311.96 892.99 1298.26 884.43 1284.56 875.23 1270.87 866.71 1257.17 860.1 1243.47 856.34 1229.78 855.97 1216.08 859.04 1202.38 865.12 1188.68 873.33 1174.99 882.49 1161.29 891.3 1147.59 898.49 1133.89 903.02 1120.2 904.26 1106.5 902.02 1092.8 896.62 1079.11 888.84 1065.41 879.79 1051.71 870.77 1038.01 863.07 1024.32 857.8 1010.62 855.71 996.92 857.1 983.23 861.78 969.53 869.06 955.83 877.91 942.13 887.06 928.44 895.2 914.74 901.15 901.04 904.08 887.34 903.55 873.65 899.65 859.95 892.93 846.25 884.36 832.56 875.16 818.86 866.65 805.16 860.06 791.46 856.32 777.77 855.98 764.07 859.08 750.37 865.18 736.68 873.4 722.98 882.57 709.28 891.36 695.58 898.53 681.89 903.05 668.19 904.25 654.49 901.98 640.8 896.56 627.1 888.77 613.4 879.71 599.7 870.7 586.01 863.02 572.31 857.77 558.61 855.71 544.92 857.13 531.22 861.82 517.52 869.12 503.82 877.98 490.13 887.13 476.43 895.25 462.73 901.19 449.03 904.09 435.34 903.54 421.64 899.61 407.94 892.87 394.25 884.28 380.55 875.08 366.85 866.59 353.15 860.02 339.46 856.31 325.76 855.99 312.06 859.12 298.37 865.24 284.67 873.47 270.97 882.64 257.27 891.43 243.58 898.58 229.88 903.07 216.18 904.25 202.49 901.95 188.79 896.51 175.09 888.7 161.39 879.64 147.7 870.64 134 862.97 120.3 857.74 106.61 855.71 92.91 857.15 79.21 861.87 65.51 869.19 51.82 878.05 38.12 887.2 24.42 895.31 10.73 901.23 -2.96 904.1 -16.66 903.52 -30.36 899.56 -44.05 892.81 -57.75 884.21 -71.45 875.01 -85.14 866.53 -98.84 859.97 -112.54 856.29 -126.24 856 -146.69 854.8 -152.62 835.59 -151.17 820.73 -149.21 805.88 -146.83 791.03 -144.19 776.18 -141.42 761.32 -138.71 746.47 -136.19 731.62 -134.02 716.77 -132.33 701.91 -131.22 687.06 -130.74 672.21 -130.93 657.36 -131.77 642.5 -133.22 627.65 -135.19 612.8 -137.57 597.95 -140.22 583.09 -142.99 568.24 -145.7 553.39 -148.21 538.54 -150.37 523.68 -152.06 508.83 -153.17 493.98 -153.63 479.13 -153.44 464.27 -152.58 449.42 -151.12 434.57 -149.14 419.72 -146.76 404.86 -144.11 390.01 -141.34 375.16 -138.63 360.31 -136.12 345.45 -133.97 330.6 -132.29 315.75 -131.19 300.9 -130.73 286.04 -130.94 271.19 -131.81 256.34 -133.27 241.49 -135.26 226.63 -137.65 211.78 -140.3 196.93 -143.07 182.08 -145.78 167.22 -148.28 152.37 -150.43 137.52 -152.1 122.67 -153.19 107.81 -153.64 92.96 -153.42 78.11 -152.55 63.26 -151.07 48.4 -149.08 33.55 -146.68 18.7 -144.03 3.85 -141.26 -11 -138.55 -25.85 -136.05 -40.7 -133.91 -55.55 -132.25 -70.41 -131.17 -85.26" fill="url(#uuunion-grad)"></path><path d="M-131.18 -85.26Q-132.26 -70.4 -133.92 -55.55 -136.06 -40.7 -138.56 -25.85 -141.27 -10.99 -144.04 3.85 -146.69 18.7 -149.09 33.55 -151.08 48.41 -152.56 63.26 -153.43 78.11 -153.65 92.96 -153.2 107.82 -152.11 122.67 -150.44 137.52 -148.29 152.37 -145.79 167.23 -143.08 182.08 -140.31 196.93 -137.66 211.78 -135.27 226.64 -133.28 241.49 -131.82 256.34 -130.95 271.19 -130.74 286.05 -131.2 300.9 -132.3 315.75 -133.98 330.61 -136.13 345.46 -138.64 360.31 -138.27 381.1 -126.26 384.89 -117.33 383.7 -108.4 383.57 -99.47 384.49 -90.55 386.4 -81.62 389.18 -72.69 392.66 -63.76 396.61 -54.83 400.77 -45.9 404.89 -36.97 408.69 -28.05 411.93 -19.12 414.41 -2.24 416.35 0.73 416.47 12.23 412.18 23.71 406.38 35.15 399.35 46.57 391.47 57.95 383.22 69.3 375.12 80.62 367.66 91.91 361.27 103.17 356.26 114.39 352.81 125.58 350.95 136.73 350.54 147.86 351.29 158.95 352.83 170.01 354.67 181.04 356.33 192.05 357.33 203.02 357.26 213.97 355.83 224.9 352.88 235.8 348.4 246.68 342.53 257.54 335.56 268.39 327.88 279.21 319.94 290.03 312.23 300.83 305.19 311.62 299.21 322.41 294.57 333.19 291.42 343.96 289.73 354.74 289.37 365.52 290.04 376.3 291.36 387.09 292.89 397.89 294.17 408.69 294.75 419.52 294.27 430.35 292.48 441.21 289.26 452.09 284.62 462.98 278.72 473.9 271.86 484.85 264.4 495.83 256.78 506.83 249.45 517.86 242.83 528.93 237.25 540.03 232.96 551.17 230.05 562.34 228.51 573.54 228.15 584.79 228.7 596.07 229.79 607.39 230.99 618.75 231.88 630.14 232.05 641.58 231.18 653.05 229.07 664.57 225.61 676.11 220.85 687.7 214.96 699.32 208.23 710.98 201.02 722.66 193.74 734.38 186.8 746.14 180.58 757.91 175.38 769.72 171.4 781.55 168.71 793.4 167.27 805.28 166.88 817.17 167.28 829.07 168.11 840.99 168.97 852.92 169.47 864.85 169.24 876.79 168.01 888.73 165.6 900.67 161.94 912.6 157.1 924.52 151.26 936.43 144.7 948.33 137.76 960.21 130.82 972.07 124.27 983.9 118.44 995.7 113.59 1007.47 109.89 1019.21 107.38 1030.92 106 1042.58 105.55 1054.19 105.77 1065.77 106.32 1077.29 106.83 1088.76 106.94 1100.18 106.33 1111.54 104.77 1122.84 102.09 1134.08 98.27 1145.26 93.39 1156.38 87.63 1167.43 81.26 1178.41 74.61 1189.32 68.02 1200.17 61.85 1210.94 56.4 1221.64 51.87 1232.28 48.42 1242.84 46.05 1253.33 44.69 1263.74 44.15 1274.09 44.16 1284.37 44.42 1294.58 44.57 1304.73 44.3 1314.81 43.33 1324.82 41.45 1334.77 38.55 1344.67 34.61 1354.5 29.72 1364.28 24.07 1374.01 17.92 1383.69 11.57 1393.33 5.34 1402.92 -0.44 1412.48 -5.55 1422 -9.77 1413.21 -26.99 1405.11 -44.21 1398.36 -61.44 1393.47 -78.66 1390.84 -95.88 1390.68 -113.1 1393 -130.32 1397.61 -147.55 1385.55 -146.52 1373.5 -144.7 1361.45 -142.3 1349.4 -139.62 1337.35 -136.98 1325.3 -134.72 1313.25 -133.1 1301.2 -132.32 1289.15 -132.49 1277.1 -133.57 1265.05 -135.44 1253 -137.87 1240.95 -140.56 1228.89 -143.18 1216.84 -145.41 1204.79 -146.98 1192.74 -147.69 1180.69 -147.46 1168.64 -146.31 1156.59 -144.4 1144.54 -141.94 1132.49 -139.24 1120.44 -136.64 1108.39 -134.45 1096.34 -132.94 1084.29 -132.29 1072.23 -132.58 1060.18 -133.79 1048.13 -135.75 1036.08 -138.23 1024.03 -140.93 1011.98 -143.52 999.93 -145.67 987.88 -147.13 975.83 -147.71 963.78 -147.35 951.73 -146.09 939.68 -144.08 927.63 -141.57 915.57 -138.87 903.52 -136.3 891.47 -134.19 879.42 -132.79 867.37 -132.27 855.32 -132.7 843.27 -134.02 831.22 -136.07 819.17 -138.61 807.12 -141.31 795.07 -143.85 783.02 -145.92 770.97 -147.27 758.91 -147.72 746.86 -147.23 734.81 -145.85 722.76 -143.75 710.71 -141.2 698.66 -138.5 686.61 -135.98 674.56 -133.95 662.51 -132.66 650.46 -132.27 638.41 -132.83 626.36 -134.27 614.31 -136.4 602.25 -138.98 590.2 -141.68 578.15 -144.17 566.1 -146.16 554.05 -147.38 542 -147.71 529.95 -147.09 517.9 -145.6 505.85 -143.42 493.8 -140.82 481.75 -138.13 469.7 -135.66 457.65 -133.72 445.59 -132.55 433.54 -132.3 421.49 -132.98 409.44 -134.53 397.39 -136.74 385.34 -139.35 373.29 -142.05 361.24 -144.49 349.19 -146.38 337.14 -147.49 325.09 -147.68 313.04 -146.93 300.99 -145.33 288.93 -143.08 276.88 -140.45 264.83 -137.76 252.78 -135.35 240.73 -133.51 228.68 -132.46 216.63 -132.33 204.58 -133.15 192.53 -134.8 180.48 -137.09 168.43 -139.73 156.38 -142.41 144.33 -144.79 132.27 -146.58 120.22 -147.57 108.17 -147.63 96.12 -146.75 84.07 -145.05 72.02 -142.73 59.97 -140.07 47.92 -137.4 35.87 -135.05 23.82 -133.31 11.77 -132.39 -0.27 -132.39 -12.32 -133.33 -24.38 -135.09 -36.43 -137.44 -48.48 -140.11 -60.53 -142.76 -72.58 -145.08 -84.63 -146.77 -96.68 -147.63 -108.73 -147.56 -120.78 -146.56 -132.83 -144.76 -144.88 -142.37 -140.48 -128.07 -136.71 -113.79 -133.61 -99.52 -131.18 -85.26" fill="url(#uuunion-grad2)" filter="url(#uuunion-blur)"></path><path d="M1393.57 305.14Q1410.9 305.92 1428.24 309.44 1436.91 312.53 1445.57 316.1 1454.24 319.91 1462.91 323.73 1471.57 327.31 1480.24 330.43 1497.58 334.02 1514.91 334.89 1523.58 333.65 1532.25 331.53 1537.8 349.25 1545.44 366.96 1554.56 384.68 1564.45 402.39 1574.32 420.11 1583.38 437.83 1590.93 455.54 1596.36 473.26 1599.25 490.97 1599.36 508.69 1596.69 526.4 1591.45 544.12 1584.05 561.84 1575.08 579.55 1565.25 597.27 1555.33 614.98 1546.12 632.7 1538.34 650.42 1532.6 668.13 1529.36 685.85 1528.89 703.56 1531.2 721.28 1536.13 738.99 1543.28 756.71 1552.08 774.43 1561.84 792.14 1571.79 809.86 1581.14 827.57 1589.15 845.29 1595.18 863.01 1598.76 880.72 1599.6 898.44 1587.04 902.74 1574.47 904.29 1561.91 902.91 1549.35 898.76 1536.78 892.34 1524.22 884.43 1511.65 875.99 1499.09 868.02 1486.53 861.51 1473.96 857.23 1461.4 855.7 1448.84 857.1 1436.27 861.27 1423.71 867.7 1411.14 875.62 1398.58 884.07 1386.02 892.02 1373.45 898.52 1360.89 902.79 1348.32 904.29 1335.76 902.87 1323.2 898.68 1310.63 892.23 1298.07 884.3 1285.51 875.85 1272.94 867.91 1260.38 861.42 1247.81 857.18 1235.25 855.7 1222.69 857.15 1210.12 861.36 1197.56 867.82 1184.99 875.76 1172.43 884.2 1159.87 892.14 1147.3 898.61 1134.74 902.83 1122.17 904.29 1109.61 902.82 1097.05 898.59 1084.48 892.11 1071.92 884.17 1059.36 875.72 1046.79 867.79 1034.23 861.33 1021.66 857.13 1009.1 855.7 996.54 857.19 983.97 861.45 971.41 867.94 958.84 875.89 946.28 884.34 933.72 892.26 921.15 898.7 908.59 902.88 896.03 904.29 883.46 902.77 870.9 898.5 858.33 891.99 845.77 884.03 833.21 875.59 820.64 867.67 808.08 861.25 795.51 857.09 782.95 855.7 770.39 857.24 757.82 861.53 745.26 868.06 732.7 876.02 720.13 884.47 707.57 892.37 695 898.78 682.44 902.92 669.88 904.29 657.31 902.73 644.75 898.41 632.18 891.87 619.62 883.9 607.06 875.45 594.49 867.56 581.93 861.16 569.36 857.04 556.8 855.7 544.24 857.29 531.67 861.62 519.11 868.17 506.55 876.16 493.98 884.6 481.42 892.49 468.85 898.87 456.29 902.97 443.73 904.29 431.16 902.68 418.6 898.32 406.03 891.76 393.47 883.77 380.91 875.32 368.34 867.44 355.78 861.08 343.22 857 330.65 855.7 318.09 857.34 305.52 861.71 292.96 868.29 280.4 876.29 267.83 884.73 255.27 892.61 242.7 898.95 230.14 903.01 217.58 904.29 205.01 902.63 192.45 898.24 179.89 891.64 167.32 883.63 154.76 875.19 142.19 867.33 129.63 860.99 117.07 856.96 104.5 855.7 91.94 857.39 79.37 861.8 66.81 868.41 54.25 876.42 41.68 884.87 29.12 892.72 16.55 899.04 -2.27 898.59 -8.31 883.96 -7.89 873.8 -7.3 863.64 -6.54 853.47 -5.64 843.31 -3.81 828.07 -2.49 823 10.81 815.2 24.07 804.72 37.27 792.11 50.4 778.2 63.47 763.95 76.45 750.37 89.35 738.39 102.17 728.7 114.9 721.72 127.55 717.51 140.13 715.8 152.62 715.98 165.05 717.24 177.4 718.62 189.71 719.15 201.96 718 214.17 714.54 226.35 708.44 238.52 699.71 250.67 688.68 262.82 675.98 274.99 662.43 287.17 648.96 299.39 636.48 311.64 625.75 323.95 617.33 336.31 611.47 348.73 608.08 361.22 606.79 373.78 606.96 386.42 607.75 399.13 608.28 411.92 607.7 424.78 605.31 437.72 600.65 450.72 593.53 463.78 584.09 476.9 572.76 490.06 560.19 503.25 547.19 516.48 534.62 529.72 523.26 542.96 513.75 556.19 506.46 569.39 501.52 582.56 498.72 595.69 497.62 608.74 497.54 621.73 497.7 634.63 497.29 647.43 495.59 660.13 492.03 672.71 486.31 685.16 478.37 697.49 468.46 709.68 457.06 721.73 444.83 733.65 432.54 745.42 420.94 757.07 410.69 768.58 402.29 779.97 395.98 791.25 391.75 802.42 389.3 811.89 391.92 821.35 395.04 830.79 398.35 840.23 401.48 849.66 404.1 859.07 405.92 868.47 406.71 877.86 406.31 887.24 404.66 896.61 401.79 905.97 397.83 915.32 392.99 924.66 387.55 933.99 381.83 943.31 376.17 952.62 370.91 961.92 366.35 971.21 362.76 980.49 360.29 989.77 359.05 999.03 359.03 1008.29 360.13 1017.53 362.17 1026.77 364.9 1036.01 368.01 1045.23 371.16 1054.45 374.02 1063.66 376.28 1072.86 377.66 1082.06 377.97 1091.25 377.1 1100.44 375.01 1109.62 371.77 1118.8 367.54 1127.97 362.55 1137.14 357.09 1146.3 351.48 1155.46 346.05 1164.62 341.13 1173.77 336.99 1182.92 333.85 1192.07 331.86 1201.22 331.07 1210.37 331.43 1219.51 332.83 1228.65 335.06 1237.8 337.85 1246.94 340.89 1256.09 343.84 1265.23 346.4 1274.38 348.27 1283.52 349.2 1292.67 349.05 1301.83 347.72 1310.98 345.23 1320.14 341.67 1329.3 337.22 1338.47 332.13 1347.64 326.7 1356.81 321.24 1365.99 316.09 1375.18 311.53 1384.37 307.81 1393.57 305.14" fill="url(#uuunion-grad3)" filter="url(#uuunion-blur2)"></path></svg>